<svg xmlns="http://www.w3.org/2000/svg" version="1.1" xmlns:xlink="http://www.w3.org/1999/xlink" xmlns:svgjs="http://svgjs.dev/svgjs" width="2000" height="1454" viewBox="0 0 2000 1454"><g transform="matrix(1,0,0,1,-1.2121212121212466,-1.1936466296118624)"><svg viewBox="0 0 396 288" data-background-color="#ffffff" preserveAspectRatio="xMidYMid meet" height="1454" width="2000" xmlns="http://www.w3.org/2000/svg" xmlns:xlink="http://www.w3.org/1999/xlink"><g id="tight-bounds" transform="matrix(1,0,0,1,0.2400000000000091,0.23643069417346396)"><svg viewBox="0 0 395.52 287.527138611653" height="287.527138611653" width="395.52"><g><svg viewBox="0 0 395.52 287.527138611653" height="287.527138611653" width="395.52"><g><svg viewBox="0 0 395.52 287.527138611653" height="287.527138611653" width="395.52"><g id="textblocktransform"><svg viewBox="0 0 395.52 287.527138611653" height="287.527138611653" width="395.52" id="textblock"><g><svg viewBox="0 0 395.52 287.527138611653" height="287.527138611653" width="395.52"><g transform="matrix(1,0,0,1,0,0)"><svg width="395.52" viewBox="29.61525151495622 -1.1077978799877486 47.933790085424356 34.84592516345517" height="287.527138611653" data-palette-color="#3d4950"><path d="M45.119 33.559l-8.659 0.178c-0.513 0.011-0.928-0.078-1.245-0.264-0.31-0.18-0.571-0.512-0.781-0.994v0l-3.437-8.101c-0.211-0.509-0.393-0.945-0.547-1.309-0.148-0.364-0.271-0.715-0.372-1.053-0.094-0.345-0.161-0.71-0.203-1.096-0.041-0.393-0.068-0.855-0.078-1.389v0l-0.181-8.798c-0.006-0.287 0.029-0.531 0.105-0.732 0.069-0.201 0.182-0.37 0.339-0.507v0l4.225-3.718c0.105-0.096 0.253-0.172 0.445-0.229 0.186-0.057 0.388-0.088 0.609-0.093v0l5.298-0.109c0.533-0.011 0.942 0.107 1.228 0.355 0.285 0.248 0.433 0.628 0.444 1.141v0l0.189 9.198c0.005 0.22 0.029 0.429 0.073 0.629 0.051 0.199 0.112 0.411 0.183 0.636v0l0.105 0.228-0.146-7.068c-0.006-0.287 0.029-0.531 0.105-0.733 0.069-0.201 0.182-0.37 0.34-0.507v0l4.224-3.717c0.105-0.096 0.253-0.172 0.446-0.23 0.186-0.057 0.388-0.088 0.608-0.092v0l5.239-0.108c0.553-0.011 0.949 0.101 1.187 0.336 0.238 0.242 0.363 0.629 0.374 1.162v0l0.181 8.799c0.011 0.533 0.004 0.993-0.022 1.38-0.025 0.394-0.078 0.762-0.157 1.104-0.086 0.349-0.195 0.708-0.328 1.077-0.139 0.37-0.303 0.813-0.493 1.33v0l-3.101 8.226c-0.063 0.201-0.145 0.383-0.249 0.545-0.11 0.156-0.221 0.278-0.333 0.367v0l-4.225 3.657c-0.17 0.157-0.371 0.278-0.603 0.363-0.232 0.085-0.494 0.13-0.787 0.136zM40.678 29.68l8.658-0.178c0.427-0.009 0.775-0.093 1.045-0.252 0.277-0.166 0.487-0.46 0.632-0.883v0l3.101-8.236c0.19-0.491 0.348-0.921 0.474-1.29 0.126-0.369 0.229-0.722 0.308-1.056 0.086-0.335 0.143-0.686 0.169-1.054 0.026-0.367 0.033-0.818 0.022-1.351v0l-0.181-8.798c-0.009-0.42-0.112-0.725-0.309-0.914-0.19-0.183-0.496-0.27-0.916-0.261v0l-5.238 0.108c-0.42 0.009-0.721 0.108-0.904 0.299-0.189 0.197-0.28 0.506-0.272 0.925v0l0.189 9.168c0.005 0.22-0.011 0.44-0.046 0.661-0.042 0.228-0.104 0.462-0.186 0.704v0l-1.473 4.732c-0.062 0.228-0.136 0.38-0.221 0.454-0.092 0.082-0.224 0.125-0.397 0.129v0l-0.37 0.007c-0.18 0.004-0.314-0.034-0.402-0.112-0.088-0.072-0.168-0.22-0.24-0.445v0l-1.665-4.626c-0.092-0.245-0.163-0.477-0.214-0.696-0.051-0.226-0.079-0.448-0.084-0.669v0l-0.189-9.198c-0.009-0.42-0.125-0.724-0.349-0.913-0.224-0.182-0.549-0.269-0.976-0.26v0l-5.299 0.109c-0.42 0.009-0.721 0.108-0.904 0.299-0.189 0.197-0.28 0.506-0.271 0.926v0l0.181 8.798c0.011 0.533 0.037 0.983 0.078 1.349 0.041 0.366 0.111 0.715 0.212 1.045 0.093 0.331 0.211 0.679 0.351 1.043 0.141 0.364 0.316 0.787 0.526 1.27v0l3.438 8.101c0.162 0.417 0.385 0.702 0.667 0.856 0.276 0.148 0.628 0.217 1.055 0.209zM38.125 15.929l-0.149-7.198 0.33-0.007 0.148 7.199c0.012 0.58 0.07 1.129 0.174 1.646 0.097 0.518 0.241 0.999 0.43 1.442v0l2.309 5.283c0.232 0.575 0.492 1.053 0.78 1.435 0.281 0.388 0.735 0.575 1.362 0.562v0l2.929-0.061c0.62-0.013 1.066-0.219 1.338-0.617 0.272-0.392 0.512-0.881 0.72-1.465v0l2.09-5.374c0.171-0.45 0.294-0.936 0.37-1.458 0.076-0.522 0.108-1.072 0.096-1.653v0l-0.148-7.198 0.34-0.007 0.148 7.198c0.013 0.62-0.015 1.194-0.085 1.722-0.069 0.522-0.199 1.028-0.389 1.519v0l-2.089 5.384c-0.253 0.645-0.542 1.185-0.867 1.618-0.325 0.427-0.83 0.647-1.517 0.661v0l-2.929 0.061c-0.693 0.014-1.211-0.185-1.553-0.599-0.342-0.42-0.653-0.947-0.933-1.581v0l-2.309-5.293c-0.21-0.482-0.357-0.983-0.441-1.502-0.091-0.525-0.143-1.097-0.155-1.717zM76.929 18.846l-2.68 4.952c-0.428 0.796-1.081 1.532-1.959 2.208-0.878 0.675-1.986 1.281-3.323 1.816v0l-10.433 4.182c-0.495 0.198-0.9 0.228-1.215 0.088-0.321-0.137-0.58-0.453-0.778-0.948v0l-8.036-20.05c-0.107-0.266-0.16-0.507-0.161-0.722-0.006-0.213 0.04-0.411 0.139-0.594v0l2.641-4.97c0.064-0.126 0.176-0.25 0.336-0.371 0.153-0.119 0.332-0.219 0.536-0.301v0l10.434-4.182c2.698-1.081 4.912-1.337 6.641-0.766 1.726 0.579 3.036 1.983 3.929 4.211v0l3.869 9.653c0.446 1.114 0.673 2.154 0.68 3.121 0.001 0.969-0.206 1.86-0.62 2.673zM61.048 26.719l10.433-4.182c2.574-1.032 4.279-2.315 5.115-3.849 0.838-1.528 0.827-3.366-0.033-5.513v0l-3.869-9.654c-0.861-2.147-2.122-3.484-3.784-4.01-1.664-0.532-3.783-0.283-6.358 0.749v0l-10.433 4.182c-0.39 0.156-0.637 0.356-0.74 0.598-0.108 0.251-0.083 0.572 0.073 0.962v0l8.036 20.05c0.156 0.39 0.36 0.639 0.611 0.746 0.243 0.104 0.559 0.078 0.949-0.079zM69.678 20.028l-7.481 2.999-6.697-16.708 7.482-2.999c1.052-0.422 1.949-0.648 2.69-0.679 0.739-0.038 1.362 0.065 1.868 0.306 0.506 0.242 0.927 0.602 1.262 1.078 0.335 0.476 0.621 1.012 0.859 1.606v0l3.289 8.206c0.238 0.594 0.403 1.175 0.493 1.741 0.094 0.558 0.04 1.094-0.164 1.606-0.198 0.51-0.584 1.006-1.16 1.489-0.575 0.482-1.389 0.934-2.441 1.355zM63.104 3.627v0l-7.175 2.875 6.451 16.096 7.175-2.876c0.99-0.397 1.752-0.817 2.285-1.261 0.527-0.441 0.886-0.898 1.078-1.369 0.198-0.474 0.256-0.975 0.174-1.503-0.082-0.527-0.235-1.069-0.458-1.626v0l-3.289-8.205c-0.223-0.557-0.496-1.058-0.818-1.504-0.322-0.445-0.717-0.776-1.183-0.991-0.469-0.221-1.051-0.311-1.746-0.27-0.691 0.033-1.522 0.244-2.494 0.633zM64.617 18.502l-4.215-10.517 3.685-1.477c0.495-0.198 0.907-0.227 1.236-0.086 0.329 0.141 0.598 0.471 0.807 0.991v0l3.014 7.518c0.206 0.514 0.241 0.941 0.104 1.283-0.136 0.342-0.451 0.612-0.946 0.811v0zM65.33 17.86l-2.147-5.355c-0.107-0.266-0.237-0.476-0.392-0.63-0.161-0.151-0.352-0.232-0.572-0.244v0l2.582 6.441z" opacity="1" transform="matrix(1,0,0,1,0,0)" fill="#000000" class="wordmark-text-0" data-fill-palette-color="primary" id="text-0"></path></svg></g></svg></g></svg></g></svg></g><g></g></svg></g><defs></defs></svg><rect width="395.52" height="287.527138611653" fill="none" stroke="none" visibility="hidden"></rect></g></svg></g></svg>